<svg width="103" height="49" viewBox="0 0 103 49" fill="none" xmlns="http://www.w3.org/2000/svg">
<path d="M10.4219 0.773438V38.5664H29.4062V48H0.929688V0.773438H10.4219ZM33.5078 0.773438H43V48H33.5078V0.773438ZM67.9609 38.8301C70.5391 38.8301 72.7754 37.8926 74.6699 36.0176C76.5645 34.123 77.5117 31.8965 77.5117 29.3379V0.773438H87.0625V29.3672C87.0625 34.6406 85.1973 39.1426 81.4668 42.873C77.7168 46.584 73.2246 48.4395 67.9902 48.4395C62.6973 48.4395 58.1855 46.584 54.4551 42.873C50.7246 39.1426 48.8594 34.6406 48.8594 29.3672V0.773438H58.4102V29.3379C58.4102 31.916 59.3574 34.1426 61.252 36.0176C63.127 37.8926 65.3633 38.8301 67.9609 38.8301ZM92.9219 0.773438H102.414V48H92.9219V0.773438Z" fill="url(#paint0_linear)"/>
<defs>
<linearGradient id="paint0_linear" x1="2.29851" y1="-18" x2="101.97" y2="-18" gradientUnits="userSpaceOnUse">
<stop stop-color="#4285C4"/>
<stop offset="0.211082" stop-color="#4285C4"/>
<stop offset="0.76781" stop-color="#9DC41B"/>
<stop offset="1" stop-color="#9DC41A"/>
</linearGradient>
</defs>
</svg>
